<?xml version="1.0" standalone="no"?>
<!DOCTYPE svg PUBLIC "-//W3C//DTD SVG 20010904//EN"
 "http://www.w3.org/TR/2001/REC-SVG-20010904/DTD/svg10.dtd">
<svg version="1.0" xmlns="http://www.w3.org/2000/svg"
 width="50.000000pt" height="50.000000pt" viewBox="0 0 50.000000 50.000000"
 preserveAspectRatio="xMidYMid meet">

<g transform="translate(0.000000,50.000000) scale(0.100000,-0.100000)"
fill="white" stroke="none">
<path d="M199 451 c-10 -35 -10 -43 4 -59 23 -26 22 -29 -17 -36 -44 -8 -52
-19 -65 -89 -10 -58 -42 -111 -71 -120 -13 -4 -13 -5 1 -6 31 -2 69 53 79 114
5 32 16 66 25 74 13 14 15 11 15 -27 0 -82 -18 -128 -61 -157 -22 -14 -51 -30
-66 -36 -23 -8 -25 -7 -20 11 3 11 1 20 -3 20 -15 0 -23 -67 -11 -89 8 -15 21
-21 46 -21 18 0 35 -6 38 -12 3 -11 11 -11 39 0 22 7 91 12 191 12 149 0 157
1 168 21 6 12 8 36 4 55 -5 27 -12 36 -33 40 -15 3 -39 22 -54 42 -16 19 -28
29 -28 20 0 -18 48 -64 78 -73 12 -3 22 -13 22 -21 0 -21 -9 -18 -72 21 -48
30 -57 41 -67 79 -6 25 -11 64 -11 88 l1 43 19 -24 c14 -16 20 -19 20 -8 0 20
-21 36 -58 43 -37 7 -38 11 -16 35 13 14 14 26 7 56 -8 36 -11 38 -50 41 -41
3 -42 2 -54 -37z m86 19 c4 -6 -10 -10 -35 -10 -25 0 -39 4 -35 10 3 6 19 10
35 10 16 0 32 -4 35 -10z m9 -36 c7 -18 -21 -64 -39 -64 -25 0 -57 38 -50 59
5 16 15 21 45 21 25 0 40 -5 44 -16z m-24 -84 c0 -5 -9 -10 -20 -10 -11 0 -20
5 -20 10 0 6 9 10 20 10 11 0 20 -4 20 -10z m-50 -10 c0 -5 14 -10 30 -10 17
0 30 5 30 10 0 6 9 10 20 10 16 0 20 -7 20 -37 0 -20 -5 -51 -12 -69 -9 -25
-9 -42 1 -73 11 -39 13 -41 53 -41 23 0 39 -3 36 -6 -12 -12 -152 -35 -175
-29 -14 3 -31 1 -38 -5 -66 -55 -175 -66 -175 -17 0 17 72 38 114 33 l41 -6
-35 15 c-33 13 -29 14 70 11 68 -2 84 -1 45 3 -53 5 -59 8 -55 26 5 23 3 69
-6 143 -5 48 -4 52 15 52 12 0 21 -4 21 -10z m-39 -173 c-7 -18 -18 -27 -32
-27 -21 0 -21 1 -6 18 10 10 17 21 17 25 0 3 5 18 12 34 l12 28 3 -26 c2 -14
-1 -37 -6 -52z m154 36 c3 -16 14 -36 22 -45 15 -17 14 -18 -4 -18 -22 0 -43
37 -43 76 0 32 16 23 25 -13z m107 -103 c44 -13 54 -25 38 -45 -10 -12 -38
-15 -121 -15 -101 0 -109 1 -109 19 0 16 11 22 58 31 31 6 62 13 67 15 17 6
29 5 67 -5z m-217 -23 c25 -19 11 -37 -30 -37 -19 0 -46 -5 -62 -11 -32 -12
-25 -2 27 35 42 29 42 29 65 13z"/>
<path d="M372 255 c0 -16 2 -22 5 -12 2 9 2 23 0 30 -3 6 -5 -1 -5 -18z"/>
</g>
</svg>
