<?xml version="1.0" standalone="no"?>
<!DOCTYPE svg PUBLIC "-//W3C//DTD SVG 20010904//EN"
 "http://www.w3.org/TR/2001/REC-SVG-20010904/DTD/svg10.dtd">
<svg version="1.0" xmlns="http://www.w3.org/2000/svg"
 width="50.000000pt" height="50.000000pt" viewBox="0 0 50.000000 50.000000"
 preserveAspectRatio="xMidYMid meet">

<g transform="translate(0.000000,50.000000) scale(0.100000,-0.100000)"
fill="white" stroke="none">
<path d="M40 449 c0 -30 2 -31 29 -26 27 6 31 3 41 -28 6 -20 27 -47 46 -61
27 -21 34 -34 35 -63 0 -20 3 -30 6 -23 6 16 100 16 106 0 3 -7 6 3 6 23 1 30
8 42 36 63 19 15 35 32 35 38 0 5 -9 0 -19 -13 -17 -21 -20 -22 -26 -7 -4 9 1
29 10 45 16 27 16 27 0 6 -10 -13 -27 -24 -39 -24 -15 -1 -17 -3 -4 -6 24 -6
32 -35 14 -49 -9 -6 -16 -21 -16 -33 0 -19 -6 -21 -50 -21 -44 0 -50 2 -50 21
0 12 -7 27 -16 33 -18 14 -10 43 14 49 13 3 11 5 -4 6 -12 0 -29 11 -39 24
-16 21 -16 21 0 -6 9 -16 14 -36 10 -45 -5 -14 -7 -14 -22 0 -8 9 -22 38 -29
65 -7 26 -13 42 -13 36 -1 -7 -6 -13 -11 -13 -6 0 -10 8 -8 18 2 11 -4 18 -19
20 -20 3 -23 -1 -23 -29z m30 1 c0 -11 -4 -20 -10 -20 -5 0 -10 9 -10 20 0 11
5 20 10 20 6 0 10 -9 10 -20z"/>
<path d="M160 458 c0 -18 -2 -20 -10 -8 -5 8 -12 12 -15 8 -10 -9 25 -38 46
-38 14 0 19 7 19 30 0 23 -4 30 -20 30 -14 0 -20 -7 -20 -22z m30 -8 c0 -11
-4 -20 -10 -20 -5 0 -10 9 -10 20 0 11 5 20 10 20 6 0 10 -9 10 -20z"/>
<path d="M300 450 c0 -23 5 -30 19 -30 21 0 56 29 46 38 -3 4 -10 0 -15 -8 -8
-12 -10 -10 -10 8 0 15 -6 22 -20 22 -16 0 -20 -7 -20 -30z m30 0 c0 -11 -4
-20 -10 -20 -5 0 -10 9 -10 20 0 11 5 20 10 20 6 0 10 -9 10 -20z"/>
<path d="M417 474 c-3 -3 -3 -12 0 -20 3 -8 1 -14 -5 -14 -6 0 -13 6 -15 13
-3 6 -6 2 -6 -10 -1 -12 -3 -30 -6 -40 -4 -11 -1 -10 6 4 9 17 18 21 40 16 27
-5 29 -3 29 26 0 23 -4 31 -18 31 -10 0 -21 -3 -25 -6z m33 -24 c0 -11 -4 -20
-10 -20 -5 0 -10 9 -10 20 0 11 5 20 10 20 6 0 10 -9 10 -20z"/>
<path d="M232 421 c-8 -5 -12 -21 -10 -37 2 -23 8 -29 28 -29 20 0 26 6 28 29
2 16 -2 34 -8 40 -8 8 -9 7 -5 -6 6 -14 2 -18 -15 -18 -19 0 -20 2 -10 15 14
17 11 19 -8 6z m38 -46 c0 -8 -9 -15 -20 -15 -11 0 -20 7 -20 15 0 8 9 15 20
15 11 0 20 -7 20 -15z"/>
<path d="M181 198 c-1 -21 4 -28 17 -28 11 0 13 3 6 8 -7 4 -14 16 -17 27 -4
15 -5 14 -6 -7z"/>
<path d="M310 201 c0 -11 -6 -22 -12 -24 -8 -3 -6 -6 5 -6 12 -1 17 7 17 24 0
14 -2 25 -5 25 -3 0 -5 -9 -5 -19z"/>
<path d="M233 185 c-6 -14 -7 -27 -2 -31 5 -3 9 2 9 10 0 27 17 17 28 -16 8
-24 10 -26 7 -8 -4 35 -16 70 -24 70 -3 0 -11 -11 -18 -25z"/>
<path d="M172 135 c0 -16 2 -22 5 -12 2 9 2 23 0 30 -3 6 -5 -1 -5 -18z"/>
<path d="M322 135 c0 -16 2 -22 5 -12 2 9 2 23 0 30 -3 6 -5 -1 -5 -18z"/>
<path d="M161 80 c-1 -8 -10 -21 -21 -28 -31 -19 -24 -32 20 -32 29 0 40 4 40
15 0 8 -5 15 -10 15 -6 0 -15 10 -20 23 -5 13 -9 16 -9 7z m19 -35 c11 -13 8
-15 -21 -15 -32 1 -33 1 -15 15 24 18 21 18 36 0z"/>
<path d="M331 77 c-1 -10 -8 -20 -16 -23 -32 -13 -16 -34 25 -34 43 0 51 11
22 32 -11 7 -21 20 -25 28 -4 12 -6 11 -6 -3z m39 -42 c0 -3 -14 -5 -31 -5
-27 0 -30 2 -19 15 9 11 17 12 31 4 10 -5 19 -12 19 -14z"/>
</g>
</svg>
