<?xml version="1.0" standalone="no"?>
<!DOCTYPE svg PUBLIC "-//W3C//DTD SVG 20010904//EN"
 "http://www.w3.org/TR/2001/REC-SVG-20010904/DTD/svg10.dtd">
<svg version="1.0" xmlns="http://www.w3.org/2000/svg"
 width="48.000000pt" height="44.000000pt" viewBox="0 0 48.000000 44.000000"
 preserveAspectRatio="xMidYMid meet">

<g transform="translate(0.000000,44.000000) scale(0.100000,-0.100000)"
fill="white" stroke="none">
<path d="M250 425 c15 -18 13 -20 -17 -29 -25 -8 -30 3 -12 21 9 9 6 12 -12
11 -34 -2 -49 -16 -49 -49 0 -15 -4 -31 -10 -34 -14 -9 -12 -25 3 -25 9 0 14
14 15 41 2 44 8 59 23 59 14 0 11 -64 -3 -79 -11 -11 -8 -12 12 -6 24 7 24 7
9 -11 -34 -40 -41 -63 -28 -98 10 -27 9 -42 -5 -84 l-18 -52 -74 0 -74 0 0
-45 c0 -48 12 -58 31 -24 10 20 16 21 85 14 l73 -7 36 56 c34 54 37 56 80 56
49 0 48 2 63 -90 7 -44 8 -45 50 -48 32 -2 42 0 42 12 0 8 -9 20 -20 26 -13 7
-20 22 -21 43 l-2 32 -6 -34 c-10 -55 -28 -49 -41 13 -7 37 -16 56 -26 56 -9
0 -14 10 -14 29 0 25 3 28 25 24 31 -6 42 -20 48 -58 4 -27 4 -27 6 7 1 43 -7
49 -87 68 l-53 12 6 37 c4 28 2 41 -9 50 -12 10 -13 18 -5 33 13 25 2 75 -18
82 -13 5 -14 4 -3 -9z m20 -49 c0 -7 -7 -19 -16 -26 -12 -11 -18 -10 -32 4
-15 15 -15 18 -2 26 22 14 50 12 50 -4z m-15 -56 c3 -6 -3 -23 -15 -40 -18
-25 -19 -33 -9 -52 7 -13 19 -29 28 -36 14 -11 12 -12 -13 -10 -20 2 -34 13
-49 39 l-21 36 23 36 c22 36 44 47 56 27z m18 -53 c-5 -35 -25 -49 -38 -27 -6
10 33 75 41 68 2 -2 1 -21 -3 -41z m41 -53 c10 -4 16 -18 16 -36 l0 -30 -64 4
c-35 1 -62 0 -59 -4 2 -5 13 -8 24 -8 21 0 22 -1 13 -24 -7 -19 -24 -20 -48
-3 -15 11 -16 16 -3 46 9 20 17 29 21 22 9 -14 66 -14 66 0 0 7 -8 18 -17 25
-16 12 -16 13 9 14 14 0 33 -3 42 -6z m-110 -117 c16 -12 17 -17 6 -36 -11
-22 -16 -23 -78 -16 -72 8 -82 11 -82 26 0 5 27 9 60 9 47 0 60 3 60 15 0 19
11 19 34 2z m-160 -33 c3 -9 -1 -25 -9 -37 -14 -21 -15 -20 -15 16 0 38 13 50
24 21z m400 -30 c26 -10 18 -24 -14 -24 -30 0 -41 14 -17 23 6 3 13 6 14 6 1
1 8 -2 17 -5z"/>
</g>
</svg>
